<svg width="19" height="27" viewBox="0 0 19 27" fill="none" xmlns="http://www.w3.org/2000/svg">
<path d="M11.1384 25.1116C11.6124 25.0601 12.0365 25.4181 12.0864 25.9121C12.136 26.4064 11.7916 26.8494 11.3172 26.9012C10.1094 27.0329 8.89173 27.0329 7.68392 26.9012C7.20954 26.8494 6.86509 26.4064 6.91475 25.9121C6.96463 25.4181 7.3887 25.0602 7.86272 25.1116C8.95129 25.2304 10.0498 25.2304 11.1384 25.1116ZM11.9301 22.2626C12.3987 22.1698 12.8509 22.4903 12.9399 22.9786C13.0288 23.4669 12.7213 23.9383 12.2528 24.0311C10.4344 24.3909 8.56674 24.3909 6.74833 24.0311C6.27988 23.9382 5.97235 23.4669 6.06125 22.9786C6.15024 22.4903 6.60247 22.1698 7.07106 22.2626C8.67635 22.5802 10.3248 22.5802 11.9301 22.2626ZM8.6375 20.6992V15.246C8.27411 15.204 7.91279 15.1395 7.55797 15.0445C7.09631 14.9207 6.81881 14.4299 6.93724 13.9487C7.05592 13.4672 7.52669 13.1769 7.98866 13.3006C8.48239 13.4327 8.99025 13.4991 9.5 13.4986H9.50112C10.0109 13.4991 10.5187 13.4327 11.0125 13.3006C11.4744 13.1769 11.9452 13.4672 12.0639 13.9487C12.1823 14.4299 11.9048 14.9207 11.4432 15.0445C11.0887 15.1394 10.7278 15.204 10.3647 15.246V20.6992C10.3647 21.1961 9.97784 21.5989 9.50112 21.5992C9.02416 21.5992 8.6375 21.1963 8.6375 20.6992ZM11.2284 20.6992V20.4695C11.2284 18.8672 12.2469 17.6044 13.3953 16.9102C14.8749 16.0171 16.0305 14.6406 16.6834 12.9935C17.3362 11.3463 17.4497 9.5206 17.0061 7.7994C16.5624 6.07814 15.5868 4.55706 14.2297 3.47252C12.8726 2.38798 11.2101 1.80013 9.5 1.80013C7.78986 1.80013 6.1274 2.38798 4.77031 3.47252C3.41325 4.55706 2.4376 6.07814 1.9939 7.7994C1.55028 9.5206 1.66378 11.3463 2.31663 12.9935C2.9695 14.6406 4.12507 16.0171 5.6047 16.9102L5.60582 16.9114C6.75344 17.6053 7.77388 18.8669 7.77388 20.4695V20.6992C7.77388 21.1961 7.38697 21.5989 6.91026 21.5992C6.43329 21.5992 6.04663 21.1963 6.04663 20.6992V20.4695C6.04663 19.7129 5.54857 18.9572 4.73883 18.4678C2.93037 17.3761 1.51771 15.6934 0.719831 13.6803C-0.0780777 11.667 -0.217153 9.4355 0.325129 7.33179C0.867413 5.22814 2.06037 3.36942 3.7189 2.0439C5.37756 0.718353 7.40982 7.54911e-07 9.5 0C11.5902 0 13.6224 0.718353 15.2811 2.0439C16.9396 3.36942 18.1326 5.22814 18.6749 7.33179C19.2172 9.4355 19.0781 11.667 18.2802 13.6803C17.4822 15.6936 16.0699 17.3773 14.2612 18.4689L14.26 18.4678C13.4513 18.9569 12.9556 19.7126 12.9556 20.4695V20.6992C12.9556 21.1961 12.5687 21.5989 12.092 21.5992C11.615 21.5992 11.2284 21.1963 11.2284 20.6992Z" fill="#7BB662"/>
</svg>
